<?xml version="1.0" encoding="UTF-8"?>
<svg width="700pt" height="700pt" version="1.1" viewBox="0 0 700 700" xmlns="http://www.w3.org/2000/svg">
 <path d="m560.34 230.27c14.684 17.93 22.609 40.441 22.398 63.613-0.058594 26.719-10.695 52.32-29.586 71.211-18.891 18.891-44.496 29.531-71.211 29.59h-31.137c7.1562-7.5234 10.316-17.996 8.5117-28.223-1.043-5.9766-3.668-11.562-7.6094-16.172-3.9414-4.6133-9.0508-8.0781-14.793-10.035l-28.449-9.4062 24.641-43.23 0.003907-0.003906c5.3633-9.043 6.1836-20.078 2.2148-29.812-3.9648-9.7383-12.262-17.059-22.414-19.781-10.156-2.7227-21-0.53516-29.305 5.9141l-123.43 89.602v-0.003906c-5.0391 3.5742-8.9766 8.4961-11.352 14.199s-3.1016 11.961-2.0898 18.059c0.88281 6.1133 3.4414 11.863 7.3984 16.609 3.9531 4.7461 9.1484 8.3008 15.004 10.27l5.6016 1.793h-61.152c-28.996-0.13281-56.535-12.711-75.613-34.543s-27.859-50.805-24.105-79.555c3.75-28.75 19.672-54.5 43.719-70.703 1.4492-40.609 18.609-79.066 47.859-107.27 29.25-28.203 68.305-43.953 108.94-43.926 37.676 0.042968 74.074 13.648 102.54 38.328 28.465 24.68 47.094 58.785 52.473 96.07 34.805-4.5312 69.402 9.7031 90.945 37.41zm-72.574-59.586c27.793 1.5 54.254 12.398 75.039 30.914 3.8594 3.2969 7.4531 6.8906 10.75 10.75 18.309-32.984 17.824-73.188-1.2734-105.72-19.094-32.535-53.961-52.555-91.684-52.648-21.402-0.0625-42.301 6.5117-59.809 18.816 32.879 23.992 56.523 58.547 66.977 97.887zm-57.566 190.85-54.434-18.145 38.078-67.199c2.5977-4.5898 1.6367-10.371-2.3008-13.879s-9.793-3.7891-14.051-0.67969l-123.65 89.602v-0.003906c-3.4062 2.4805-5.1328 6.6602-4.4727 10.82 0.66016 4.1562 3.6016 7.5938 7.6094 8.8945l53.09 17.695-3.8086 5.375-66.082 95.199c-3.2188 4.5195-2.6484 10.711 1.3438 14.562 2.1289 1.9883 4.9258 3.1055 7.8398 3.1328 2.5234-0.03125 4.9648-0.89453 6.9453-2.4609l139.78-109.76 17.473-13.664h-0.003907c3.1406-2.625 4.6719-6.707 4.0352-10.75-0.72656-4.0273-3.543-7.3594-7.3945-8.7383z"/>
</svg>
